<?xml version="1.0" encoding="UTF-8"?>
<svg width="285px" height="94px" viewBox="0 0 285 94" version="1.1" xmlns="http://www.w3.org/2000/svg" xmlns:xlink="http://www.w3.org/1999/xlink">
    <title>Path</title>
    <g id="Page-1" stroke="none" stroke-width="1" fill="none" fill-rule="evenodd">
        <g id="Artboard" transform="translate(-217.000000, -40.000000)" fill="#B3D9FF" fill-rule="nonzero">
            <path d="M220.998582,55.5286225 C221.005924,57.0258608 221.066302,58.6658367 221.179714,60.4485501 C221.293126,62.2312635 221.598639,63.9968873 222.096254,65.7454216 C222.593869,67.4939559 223.298006,69.2667077 224.208664,71.0636772 C225.119321,72.8606466 226.151618,74.6346381 227.305555,76.3856517 C228.459491,78.1366653 229.780626,79.7908529 231.26896,81.3482146 C232.757293,82.9055763 234.413224,84.4980468 236.236751,86.1256261 C238.060278,87.7532054 240.107666,89.2524361 242.378914,90.6233182 C244.650162,91.9942002 247.105505,93.2056537 249.744944,94.2576786 C252.384383,95.3097036 255.279442,96.1029504 258.430119,96.637419 C261.580797,97.1718877 264.966836,97.5938134 268.588235,97.903196 C272.209635,98.2125786 275.888669,98.3953393 279.625338,98.451478 C283.362008,98.5076167 287.183515,98.4318206 291.08986,98.2240897 C294.996205,98.0163588 298.94718,97.6796152 302.942787,97.2138589 C306.938393,96.7481026 311.007646,96.1042786 315.150546,95.2823869 C319.293446,94.4604952 323.492698,93.5443454 327.748303,92.5339375 C332.003907,91.5235296 336.298259,90.5164422 340.631359,89.5126753 C344.964459,88.5089084 349.188702,87.5120039 353.30409,86.5219617 C357.419478,85.5319196 361.54004,84.5377158 365.665778,83.5393503 C369.791516,82.5409847 373.930745,81.6017685 378.083465,80.7217015 C382.236185,79.8416345 386.395008,79.0490518 390.559936,78.3439534 C394.724864,77.638855 398.790977,77.108061 402.758274,76.7515715 C406.725571,76.3950819 410.540267,76.3064465 414.20236,76.4856653 C417.864454,76.6648841 421.259383,77.0347 424.387148,77.5951129 C427.514914,78.1555258 430.409308,78.9429285 433.070333,79.957321 C435.731357,80.9717135 438.155782,82.2368706 440.343608,83.7527924 C442.531434,85.2687142 444.442187,86.8559604 446.075869,88.5145311 C447.70955,90.1731018 449.102563,92.0180636 450.254907,94.0494165 C451.407251,96.0807694 452.291236,98.1930541 452.906864,100.386271 C453.522491,102.579487 453.871795,104.760395 453.954775,106.928996 C454.037755,109.097596 453.856535,111.207933 453.411114,113.260006 C452.965693,115.312079 452.314591,117.25794 451.457809,119.097589 C450.601026,120.937238 449.490924,122.618919 448.127503,124.142633 C446.764082,125.666347 445.224881,127.013454 443.5099,128.183955 C441.794919,129.354455 439.921807,130.315144 437.890565,131.066021 C435.859322,131.816898 433.79057,132.43987 431.684309,132.934935 C429.578048,133.43 427.468912,133.756472 425.356901,133.914351 C423.244889,134.07223 421.123457,134.011842 418.992602,133.733185 C416.861748,133.454528 414.853506,132.99528 412.967877,132.35544 C411.082247,131.715601 409.306093,130.841378 407.639414,129.732772 C405.972735,128.624165 404.510101,127.397039 403.25151,126.051393 C401.99292,124.705747 400.857163,123.32539 399.84424,121.910323 C398.831317,120.495256 397.974623,119.019313 397.274158,117.482494 C396.573692,115.945676 396.081341,114.298837 395.797103,112.54198 C395.512865,110.785122 395.484689,108.927675 395.712575,106.969639 C395.940461,105.011603 396.426973,103.022708 397.172113,101.002955 C397.917253,98.9832017 398.84901,96.9741626 399.967383,94.9758377 C401.085757,92.9775128 402.365225,91.0356808 403.805787,89.1503416 C405.24635,87.2650025 406.808596,85.3669126 408.492525,83.456072 C410.176455,81.5452313 412.055273,79.6114128 414.128979,77.6546163 C416.202685,75.6978199 418.430585,73.7840572 420.812679,71.9133283 C423.194774,70.0425994 425.654806,68.2611699 428.192776,66.56904 C430.730746,64.87691 433.312904,63.2856349 435.93925,61.7952146 C438.565596,60.3047943 441.228655,58.9744667 443.928427,57.8042318 C446.6282,56.6339968 449.403167,55.6148228 452.253329,54.7467097 C455.103492,53.8785965 457.907564,53.0973478 460.665546,52.4029636 C463.423528,51.7085793 466.060534,51.113766 468.576565,50.6185235 C471.092595,50.1232811 473.413516,49.7037019 475.539328,49.359786 C477.66514,49.0158701 479.693021,48.6983855 481.622971,48.407332 C483.552922,48.1162786 485.304085,47.8361164 486.87646,47.5668455 C488.448835,47.2975746 490.323053,46.9599012 492.499113,46.5538255 C494.675172,46.1477497 496.332076,46.4535905 497.469823,47.4713477 C498.60757,48.489105 498.200897,48.9082857 496.249804,48.7288899 C494.29871,48.549494 492.335541,48.3096206 490.360296,48.0092697 C488.385052,47.7089189 486.244422,47.4235767 483.938408,47.1532432 C481.632393,46.8829098 479.396133,46.655433 477.229627,46.4708128 C475.063121,46.2861927 473.538296,46.1160057 472.655151,45.9602518 C471.772006,45.8044979 471.225071,45.7019164 471.014348,45.6525073 C470.803624,45.6030981 470.602632,45.5288959 470.411371,45.4299005 C470.22011,45.3309052 470.042649,45.2107028 469.878989,45.0692936 C469.715329,44.9278843 469.571795,44.7686328 469.448386,44.5915391 C469.324978,44.4144455 469.223685,44.2254865 469.144509,44.0246623 C469.065333,43.8238381 469.012166,43.6161072 468.985007,43.4014697 C468.957848,43.1868322 468.955858,42.9723717 468.979036,42.7580884 C469.002214,42.5438051 469.051621,42.3351002 469.127259,42.1319738 C469.202896,41.9288473 469.300738,41.7380732 469.420785,41.5596513 C469.540832,41.3812294 469.681447,41.2194101 469.84263,41.0741933 C470.003813,40.9289765 470.179018,40.8055422 470.368244,40.7038905 C470.557471,40.6022387 470.757136,40.5243617 470.96724,40.4702596 C471.177344,40.4161575 471.389793,40.3883981 471.604586,40.3869813 C471.819379,40.3855646 473.131004,40.3435048 475.539461,40.2608021 C477.947918,40.1780994 480.236549,40.0969905 482.405355,40.0174754 C484.574161,39.9379604 486.714127,40.1297971 488.825253,40.5929855 C490.93638,41.056174 492.797814,41.530298 494.409557,42.0153576 C496.021299,42.5004171 497.583191,43.1739043 499.095233,44.0358192 C500.607275,44.8977341 501.399921,46.2058807 501.47317,47.9602591 C501.546419,49.7146375 500.771422,51.3490349 499.148179,52.8634514 C497.524937,54.3778678 496.07336,55.6517911 494.79345,56.6852212 C493.51354,57.7186513 492.18086,58.7919717 490.795411,59.9051825 C489.409962,61.0183932 488.005449,62.1880526 486.581872,63.4141606 C485.158294,64.6402686 483.643244,65.954702 482.036722,67.3574609 C480.430199,68.7602199 479.530467,69.5242019 479.337525,69.6494072 C479.144583,69.7746124 478.937884,69.8654614 478.71743,69.9219543 C478.496975,69.9784472 478.272142,69.9984588 478.042929,69.9819891 C477.813717,69.9655193 477.594279,69.9126126 477.384618,69.8232689 C477.174956,69.7339251 476.983871,69.6136785 476.811365,69.4625291 C476.638858,69.3113796 476.496164,69.1363668 476.383283,68.9374906 C476.270402,68.7386144 476.19096,68.5271203 476.144959,68.3030083 C476.098957,68.0788963 476.091172,67.8531018 476.121604,67.625625 C476.152036,67.3981482 476.216704,67.1816955 476.315608,66.9762668 C476.414511,66.7708382 476.54482,66.5863509 476.706534,66.4228049 C476.868248,66.2592589 477.050618,66.1261287 477.253645,66.0234144 C477.456672,65.9207 477.671952,65.8527846 477.899483,65.8196681 C478.127015,65.7865516 478.352689,65.7909789 478.576505,65.8329501 C478.800321,65.8749213 479.01277,65.951293 479.213851,66.0620651 C479.414931,66.1728372 479.591861,66.3130953 479.74464,66.4828396 C479.897419,66.6525839 480.020385,66.8420298 480.113539,67.0511775 C480.206692,67.2603251 480.262779,67.4791686 480.281799,67.7077079 C480.300819,67.9362473 480.284143,68.1615547 480.231772,68.3836302 C480.179401,68.6057056 480.091732,68.8138792 479.968766,69.008151 C479.8458,69.2024227 479.696294,69.37168 479.520249,69.5159228 C479.344204,69.6601656 479.148519,69.7727972 478.933196,69.8538175 C478.717872,69.9348379 478.496533,69.9790227 478.269178,69.9863721 C478.041823,69.9937215 477.817963,69.9648552 477.597597,69.8997733 C477.377231,69.8346914 477.174292,69.7357846 476.988781,69.6030529 C476.80327,69.4703212 476.642485,69.3117338 476.506426,69.1272908 C476.370367,68.9428477 476.268633,68.7411823 476.201222,68.5222945 C476.133812,68.3034068 476.101699,68.0797817 476.104884,67.8514195 C476.108069,67.6230572 476.149028,67.4008489 476.227762,67.1847946 C476.306496,66.9687404 476.416148,66.7712809 476.556719,66.5924163 C476.697289,66.4135517 476.768238,66.323898 476.769565,66.3234553 C476.770892,66.3230126 477.543633,65.5874098 479.087788,64.1166469 C480.631943,62.645884 482.108688,61.2329865 483.518022,59.8779543 C484.927357,58.5229221 486.30909,57.2660441 487.663223,56.1073203 C489.017355,54.9485964 490.347513,53.8215281 491.653698,52.7261152 C492.959882,51.6307024 494.254876,50.6160442 495.538678,49.6821408 C496.822481,48.7482373 496.729239,48.052702 495.258952,47.5955347 C493.788666,47.1383674 492.244643,46.685716 490.626886,46.2375805 C489.009128,45.7894449 487.29972,45.485685 485.498663,45.3263007 C483.697606,45.1669164 481.655526,45.1983063 479.372424,45.4204703 C477.089322,45.6426343 475.178391,45.7490676 473.639633,45.7397702 C472.100874,45.7304727 471.225779,45.7013851 471.014348,45.6525073 C470.802917,45.6036294 470.601924,45.5294272 470.411371,45.4299005 C470.220818,45.3303739 470.043357,45.2101716 469.878989,45.0692936 C469.714621,44.9284155 469.571087,44.7691641 469.448386,44.5915391 C469.325685,44.4139142 469.224393,44.2249552 469.144509,44.0246623 C469.064626,43.8243694 469.011458,43.6166385 468.985007,43.4014697 C468.958556,43.1863009 468.956566,42.9718405 468.979036,42.7580884 C469.001506,42.5443364 469.050913,42.3356315 469.127259,42.1319738 C469.203604,41.928316 469.301446,41.7375419 469.420785,41.5596513 C469.540124,41.3817607 469.680739,41.2199414 469.84263,41.0741933 C470.004521,40.9284452 470.179726,40.8050109 470.368244,40.7038905 C470.556763,40.60277 470.756428,40.524893 470.96724,40.4702596 C471.178052,40.4156262 471.390501,40.3878668 471.604586,40.3869813 C471.818671,40.3860959 472.051953,40.4263847 472.304432,40.5078478 C472.55691,40.5893109 473.494373,40.7366528 475.11682,40.9498736 C476.739266,41.1630943 478.728311,41.3408964 481.083955,41.4832797 C483.439598,41.625663 485.756671,41.8354747 488.035173,42.1127148 C490.313675,42.389955 492.36991,42.7023925 494.203876,43.0500273 C496.037842,43.3976622 497.665729,43.7354683 499.087537,44.0634458 C500.509345,44.3914233 501.440526,45.3672094 501.881082,46.9908041 C502.321637,48.6143988 501.538103,49.7404489 499.530481,50.3689543 C497.522858,50.9974597 495.459414,51.5060727 493.340148,51.8947933 C491.220883,52.2835139 489.361439,52.6190178 487.761817,52.9013051 C486.162194,53.1835924 484.411164,53.4832792 482.508726,53.8003654 C480.606288,54.1174516 478.608839,54.463227 476.516379,54.8376915 C474.423918,55.2121561 472.163551,55.6139373 469.735278,56.0430353 C467.307005,56.4721332 464.748378,56.9988541 462.059399,57.6231978 C459.37042,58.2475415 456.686748,58.9387381 454.008385,59.6967875 C451.330021,60.4548369 448.713716,61.355491 446.159468,62.3987498 C443.605221,63.4420086 441.060351,64.6618297 438.524858,66.0582133 C435.989365,67.4545968 433.496911,68.9538718 431.047494,70.5560382 C428.598078,72.1582045 426.23664,73.8370968 423.96318,75.5927148 C421.68972,77.3483328 419.572357,79.1555294 417.61109,81.0143045 C415.649823,82.8730796 413.872696,84.7176872 412.279708,86.5481273 C410.68672,88.3785674 409.245981,90.1532231 407.95749,91.8720942 C406.668998,93.5909653 405.525457,95.3400308 404.526865,97.1192909 C403.528273,98.8985509 402.700816,100.614854 402.044495,102.268201 C401.388174,103.921547 400.938418,105.504764 400.695228,107.017853 C400.452038,108.530941 400.654004,110.57779 401.301124,113.158398 C401.948245,115.739007 402.706124,117.657242 403.574761,118.913101 C404.443398,120.168961 405.37542,121.348582 406.370827,122.451964 C407.366234,123.555346 408.517163,124.563319 409.823613,125.475883 C411.130062,126.388446 412.566379,127.132638 414.132561,127.708458 C415.698744,128.284278 417.384531,128.710631 419.189923,128.987517 C420.995315,129.264403 422.826406,129.350515 424.683196,129.245853 C426.539986,129.14119 428.433356,128.867492 430.363307,128.424758 C432.293257,127.982024 434.103515,127.466194 435.794079,126.877269 C437.484643,126.288344 439.04167,125.525203 440.465159,124.587846 C441.888648,123.65049 443.146398,122.604796 444.238408,121.450765 C445.330419,120.296734 446.252312,118.971852 447.004087,117.476119 C447.755862,115.980386 448.340394,114.406732 448.757683,112.755156 C449.174972,111.103581 449.369196,109.376608 449.340357,107.574237 C449.311517,105.771866 449.059259,103.949661 448.583584,102.107621 C448.107908,100.265581 447.413591,98.4972567 446.500633,96.8026474 C445.587675,95.1080381 444.422592,93.5273444 443.005385,92.0605661 C441.588177,90.5937878 439.958918,89.1815544 438.11761,87.8238658 C436.276301,86.4661772 434.170925,85.3179462 431.801481,84.3791727 C429.432037,83.4403992 426.787776,82.7081169 423.8687,82.1823258 C420.949623,81.6565347 417.76524,81.3281588 414.315551,81.197198 C410.865862,81.0662372 407.218056,81.1827649 403.372132,81.5467809 C399.526209,81.9107969 395.549888,82.4248113 391.44317,83.088824 C387.336452,83.7528367 383.225576,84.5057947 379.110542,85.3476979 C374.995509,86.1896012 370.870523,87.0902553 366.735584,88.0496602 C362.600646,89.0090652 358.467654,89.9763508 354.336608,90.951517 C350.205562,91.9266833 345.973843,92.9032663 341.641451,93.8812661 C337.309059,94.8592658 332.985868,95.8484668 328.671876,96.8488689 C324.357885,97.849271 320.069637,98.7543081 315.807132,99.5639804 C311.544628,100.373653 307.373153,100.999944 303.292709,101.442856 C299.212266,101.885767 295.172515,102.210734 291.173459,102.417756 C287.174403,102.624779 283.257088,102.707836 279.421515,102.666927 C275.585942,102.626018 271.789869,102.450607 268.033295,102.140693 C264.276721,101.830779 260.687965,101.354442 257.267027,100.71168 C253.846089,100.068919 250.715802,99.1577275 247.876167,97.9781066 C245.036532,96.7984857 242.394705,95.4353515 239.950685,93.888704 C237.506665,92.3420565 235.340867,90.7083231 233.453291,88.987504 C231.565715,87.2666849 229.812296,85.5368782 228.193035,83.7980841 C226.573773,82.05929 225.141438,80.2504995 223.896029,78.3717129 C222.65062,76.4929262 221.519021,74.5370595 220.501232,72.5041127 C219.483443,70.471166 218.701679,68.444639 218.155939,66.4245315 C217.610199,64.4044241 217.279738,62.4576334 217.164557,60.5841596 C217.049375,58.7106857 216.99466,57.0255952 217,55.5288881 C217.00616,54.032181 217.035044,53.1565414 217.087062,52.9019692 C217.139079,52.6473971 217.236125,52.4128808 217.3782,52.1984204 C217.520274,51.9839599 217.699593,51.8044755 217.916155,51.6599671 C218.132717,51.5154587 218.36706,51.4183228 218.619185,51.3685595 C218.87131,51.3187961 219.124939,51.3187961 219.380072,51.3685595 C219.635205,51.4183228 219.869504,51.5154587 220.08297,51.6599671 C220.296436,51.8044755 220.475754,51.9840042 220.620925,52.1985532 C220.766096,52.4131022 220.863142,52.6476627 220.912063,52.9022349 C220.960984,53.156807 220.986197,53.2836946 220.987701,53.2828977 C220.989204,53.2821008 220.992831,54.0306757 220.998582,55.5286225 Z" id="Path"></path>
        </g>
    </g>
</svg>