<?xml version="1.0" encoding="UTF-8"?>
<svg width="34px" height="78px" viewBox="0 0 34 78" version="1.1" xmlns="http://www.w3.org/2000/svg" xmlns:xlink="http://www.w3.org/1999/xlink">
    <title>shape_QrDiBxEcQSJCqi45mNB4g</title>
    <g id="Page-1" stroke="none" stroke-width="1" fill="none" fill-rule="evenodd">
        <g id="Artboard" transform="translate(-614.000000, -75.000000)" fill="#B3D9FF" fill-rule="nonzero">
            <g id="shape_QrDiBxEcQSJCqi45mNB4g" transform="translate(614.000000, 75.000000)">
                <path d="M5.5488,3.4229 C6.98286667,5.05716667 8.37076667,6.82293333 9.7125,8.7202 C11.0542333,10.6174667 12.3082333,12.6298667 13.4745,14.7574 C14.6407667,16.8849333 15.5895333,18.9769 16.3208,21.0333 C17.0520667,23.0897 17.6631667,25.1038333 18.1541,27.0757 C18.6450333,29.0475667 18.9676333,31.0262 19.1219,33.0116 C19.2761667,34.997 19.2779,36.8623667 19.1271,38.6077 C18.9763,40.3530333 18.7446,41.9690333 18.432,43.4557 C18.1194,44.9423667 17.6921,46.2852333 17.1501,47.4843 C16.6081,48.6833667 15.5831667,49.8422333 14.0753,50.9609 C12.5674333,52.0795667 10.9426667,52.4748667 9.201,52.1468 C7.45933333,51.8187333 6.25253333,50.8801333 5.5806,49.331 C4.90866667,47.7818667 4.7204,46.302 5.0158,44.8914 C5.3112,43.4808 5.99346667,42.3116 7.0626,41.3838 C8.13173333,40.456 9.56683333,40.1079333 11.3679,40.3396 C13.1689667,40.5712667 14.4654333,41.0944667 15.2573,41.9092 C16.0491667,42.7239333 16.8075667,43.6793667 17.5325,44.7755 C18.2574333,45.8716333 18.925,47.0499 19.5352,48.3103 C20.1454,49.5707 20.7664,50.8415667 21.3982,52.1229 C22.03,53.4042333 22.5859,54.8085667 23.0659,56.3359 C23.5459,57.8632333 23.9640333,59.3524 24.3203,60.8034 C24.6765667,62.2544 24.9502667,63.5974333 25.1414,64.8325 C25.3325333,66.0675667 25.5019333,67.4878667 25.6496,69.0934 C25.7972667,70.6989333 25.8117667,72.1616667 25.6931,73.4816 C25.5744333,74.8015333 24.8706667,75.6906333 23.5818,76.1489 C22.2929333,76.6071667 21.1331667,76.3303333 20.1025,75.3184 C19.0718333,74.3064667 18.2364667,73.3570667 17.5964,72.4702 C16.9563333,71.5833333 16.1827667,70.5067 15.2757,69.2403 C14.3686333,67.9739 13.8137333,67.1725333 13.611,66.8362 C13.4082667,66.4998667 13.2741333,66.2758667 13.2086,66.1642 C13.1430667,66.0525333 13.0915667,65.9342333 13.0541,65.8093 C13.0166333,65.6843667 12.9949667,65.5571667 12.9891,65.4277 C12.9832333,65.2982333 12.9926333,65.1695667 13.0173,65.0417 C13.0419667,64.9138333 13.0819,64.7911333 13.1371,64.6736 C13.1923,64.5560667 13.2604,64.4465 13.3414,64.3449 C13.4224,64.2433 13.5147667,64.1532333 13.6185,64.0747 C13.7222333,63.9961667 13.8335,63.9308 13.9523,63.8786 C14.0711,63.8264 14.1947333,63.7895667 14.3232,63.7681 C14.4516667,63.7466333 14.5805333,63.7404333 14.7098,63.7495 C14.8390667,63.7585667 14.9656667,63.7834333 15.0896,63.8241 C15.2135333,63.8647667 15.3305333,63.9192 15.4406,63.9874 C15.5506667,64.0556 15.6512,64.1364333 15.7422,64.2299 C15.8332,64.3233667 16.4417333,65.2077667 17.5678,66.8831 C18.6938667,68.5584333 19.5571667,69.8818667 20.1577,70.8534 C20.7582333,71.8249333 21.5622333,72.8414667 22.5697,73.903 C23.5771667,74.9645333 24.4228667,74.8157667 25.1068,73.4567 C25.7907333,72.0976333 26.495,70.6288 27.2196,69.0502 C27.9442,67.4716 28.5300333,66.2160667 28.9771,65.2836 C29.4241667,64.3511333 29.7026333,63.8048333 29.8125,63.6447 C29.9223667,63.4845667 30.0549333,63.3466667 30.2102,63.231 C30.3654667,63.1153333 30.5351,63.0270333 30.7191,62.9661 C30.9031,62.9051667 31.0921,62.8756333 31.2861,62.8775 C31.4801,62.8793667 31.6686,62.9117 31.8516,62.9745 C32.0346,63.0373 32.2029333,63.1281667 32.3566,63.2471 C32.5102667,63.3660333 32.6407667,63.5059 32.7481,63.6667 C32.8554333,63.8275 32.9344333,64.0017 32.9851,64.1893 C33.0357667,64.3769 33.055,64.5672 33.0428,64.7602 C33.0306,64.9532 32.9880667,65.1396667 32.9152,65.3196 C32.8423333,65.4995333 32.7425,65.6627 32.6157,65.8091 C32.4889,65.9555 32.3421667,66.0782 32.1755,66.1772 C32.0088333,66.2762 31.8306333,66.3456667 31.6409,66.3856 C31.4511667,66.4255333 31.2601,66.4344333 31.0677,66.4123 C30.8753,66.3901667 30.6914,66.3376 30.516,66.2546 C30.3406,66.1716 30.1831,66.0630333 30.0435,65.9289 C29.9039,65.7947667 29.7893,65.6416333 29.6997,65.4695 C29.6101,65.2973667 29.5504,65.1156333 29.5206,64.9243 C29.4908,64.7329667 29.4922667,64.5417 29.525,64.3505 C29.5577333,64.1593 29.6202,63.9785333 29.7124,63.8082 C29.8046,63.6378667 29.9215333,63.4864667 30.0632,63.354 C30.2048667,63.2215333 30.364,63.1154333 30.5406,63.0357 C30.7172,62.9559667 30.9018667,62.9062 31.0946,62.8864 C31.2873333,62.8666 31.4782333,62.8784333 31.6673,62.9219 C31.8563667,62.9653667 32.0335333,63.0375333 32.1988,63.1384 C32.3640667,63.2392667 32.5088667,63.3642 32.6332,63.5132 C32.7575333,63.6622 32.8549,63.8268667 32.9253,64.0072 C32.9957,64.1875333 33.0353667,64.3746333 33.0443,64.5685 C33.0532333,64.7623667 33.0310667,64.9523667 32.9778,65.1385 C32.9245333,65.3246333 32.8979333,65.4177 32.898,65.4177 C32.8980667,65.4177 32.6802,65.8867667 32.2444,66.8249 C31.8086,67.7630333 31.2211,69.0446333 30.4819,70.6697 C29.7427,72.2947667 28.9086667,73.8392 27.9798,75.303 C27.0509333,76.7668 25.8035333,77.6305333 24.2376,77.8942 C22.6716667,78.1578667 21.2567333,77.5897333 19.9928,76.1898 C18.7288667,74.7898667 17.8092,73.597 17.2338,72.6112 C16.6584,71.6254 15.8601,70.3324 14.8389,68.7322 C13.8177,67.132 13.2742667,66.276 13.2086,66.1642 C13.1429333,66.0524 13.0914333,65.9341 13.0541,65.8093 C13.0167667,65.6845 12.9951,65.5573 12.9891,65.4277 C12.9831,65.2981 12.9925,65.1694333 13.0173,65.0417 C13.0421,64.9139667 13.0820333,64.7912667 13.1371,64.6736 C13.1921667,64.5559333 13.2602667,64.4463667 13.3414,64.3449 C13.4225333,64.2434333 13.5149,64.1533667 13.6185,64.0747 C13.7221,63.9960333 13.8333667,63.9306667 13.9523,63.8786 C14.0712333,63.8265333 14.1948667,63.7897 14.3232,63.7681 C14.4515333,63.7465 14.5804,63.7403 14.7098,63.7495 C14.8392,63.7587 14.9658,63.7835667 15.0896,63.8241 C15.2134,63.8646333 15.3304,63.9190667 15.4406,63.9874 C15.5508,64.0557333 15.6513333,64.1365667 15.7422,64.2299 C15.8330667,64.3232333 15.9792,64.5385333 16.1806,64.8758 C16.382,65.2130667 16.9517,66.0217667 17.8897,67.3019 C18.8277,68.5820333 19.8203667,69.6488667 20.8677,70.5024 C21.9150333,71.3559333 22.3674,71.0197333 22.2248,69.4938 C22.0822,67.9678667 21.9257,66.6354667 21.7553,65.4966 C21.5849,64.3577333 21.3353667,63.0941667 21.0067,61.7059 C20.6780333,60.3176333 20.3127333,58.9400333 19.9108,57.5731 C19.5088667,56.2061667 18.9940667,54.8752333 18.3664,53.5803 C17.7387333,52.2853667 17.1597667,51.0676 16.6295,49.927 C16.0992333,48.7864 15.5309,47.7345333 14.9245,46.7714 C14.3181,45.8082667 13.3726667,44.8962667 12.0882,44.0354 C10.8037333,43.1745333 9.75173333,43.1358333 8.9322,43.9193 C8.11266667,44.7027667 7.80633333,45.7641 8.0132,47.1033 C8.22006667,48.4425 8.92526667,49.1012667 10.1288,49.0796 C11.3323333,49.0579333 12.3742667,48.3661667 13.2546,47.0043 C14.1349333,45.6424333 14.714,44.2877333 14.9918,42.9402 C15.2696,41.5926667 15.4771667,40.1404 15.6145,38.5834 C15.7518333,37.0264 15.7553,35.3553667 15.6249,33.5703 C15.4945,31.7852333 15.1952,29.9643333 14.727,28.1076 C14.2588,26.2508667 13.6898,24.3822333 13.02,22.5017 C12.3502,20.6211667 11.4755333,18.6722333 10.396,16.6549 C9.31646667,14.6375667 8.14863333,12.7249667 6.8925,10.9171 C5.63636667,9.10923333 4.30153333,7.37933333 2.888,5.7274 C1.47446667,4.07546667 0.7118,3.1514 0.6,2.9552 C0.4882,2.759 0.418133333,2.54843333 0.3898,2.3235 C0.361466667,2.09856667 0.377266667,1.8772 0.4372,1.6594 C0.497133333,1.4416 0.596466667,1.24313333 0.7352,1.064 C0.873933333,0.884866667 1.04166667,0.739533333 1.2384,0.628 C1.43513333,0.516466667 1.64573333,0.446366667 1.8702,0.4177 C2.09466667,0.389033333 2.31603333,0.4049 2.5343,0.4653 C2.75256667,0.5257 2.95103333,0.625033333 3.1297,0.7633 C3.30836667,0.901566667 3.39766667,0.970966667 3.3976,0.9715 C3.39753333,0.972033333 4.1146,1.78916667 5.5488,3.4229 Z" id="Path"></path>
            </g>
        </g>
    </g>
</svg>