<svg width="235" height="24" viewBox="0 0 235 24" fill="none" xmlns="http://www.w3.org/2000/svg">
<path d="M6.46 19.12C3.3 19.12 1.24 17.3 1.14 14.42H2.94C3.08 16.32 4.48 17.54 6.48 17.54C8.32 17.54 9.5 16.62 9.5 15.16C9.5 13.8 8.62 13.18 5.86 12.7C2.84 12.18 1.48 10.98 1.48 8.86C1.48 6.48 3.34 4.88 6.06 4.88C8.96 4.88 10.9 6.54 11.06 9.14H9.26C9.08 7.5 7.82 6.46 6.06 6.46C4.28 6.46 3.22 7.32 3.22 8.76C3.22 10.08 4.06 10.66 6.82 11.14C9.84 11.64 11.24 12.88 11.24 15C11.24 17.42 9.28 19.12 6.46 19.12ZM23.2023 19H19.6223C17.6623 19 16.9623 18.14 16.9623 16.34V10.3H13.7223V8.8H16.9623V5.94H18.6023V8.8H23.0423V10.3H18.6023V16.32C18.6023 17.18 18.9023 17.5 19.7823 17.5H23.2023V19ZM35.5447 17.5H36.0647V19H35.1647C33.8047 19 33.3447 18.42 33.3247 17.42C32.6847 18.34 31.6647 19.12 29.9047 19.12C27.6647 19.12 26.1447 18 26.1447 16.14C26.1447 14.1 27.5647 12.96 30.2447 12.96H33.2447V12.26C33.2447 10.94 32.3047 10.14 30.7047 10.14C29.2647 10.14 28.3047 10.82 28.1047 11.86H26.4647C26.7047 9.86 28.3247 8.68 30.7847 8.68C33.3847 8.68 34.8847 9.98 34.8847 12.36V16.82C34.8847 17.36 35.0847 17.5 35.5447 17.5ZM33.2447 14.84V14.34H30.0847C28.6247 14.34 27.8047 14.88 27.8047 16.04C27.8047 17.04 28.6647 17.72 30.0247 17.72C32.0647 17.72 33.2447 16.54 33.2447 14.84ZM43.667 19.12C40.687 19.12 38.727 17.1 38.727 13.92C38.727 10.8 40.747 8.68 43.707 8.68C46.207 8.68 47.787 10.08 48.207 12.32H46.487C46.187 10.96 45.187 10.14 43.687 10.14C41.727 10.14 40.407 11.7 40.407 13.92C40.407 16.14 41.727 17.66 43.687 17.66C45.147 17.66 46.147 16.82 46.467 15.52H48.207C47.807 17.72 46.147 19.12 43.667 19.12ZM53.3694 19H51.7294V5H53.3694V14.22L58.9094 8.8H61.0094L56.6094 13.1L61.1894 19H59.1694L55.4694 14.2L53.3694 16.26V19ZM68.4117 19.12C65.7717 19.12 63.9517 17.88 63.9117 15.64H65.5917C65.6517 16.84 66.7117 17.72 68.4117 17.72C69.8517 17.72 70.8717 17.1 70.8717 16.16C70.8717 14.88 69.7517 14.78 68.2317 14.6C65.9517 14.32 64.1317 13.86 64.1317 11.74C64.1317 9.88 65.8317 8.68 68.1317 8.68C70.4517 8.68 72.1317 9.78 72.2917 11.9H70.6117C70.4917 10.86 69.5317 10.08 68.1317 10.08C66.7117 10.08 65.7517 10.68 65.7517 11.62C65.7517 12.74 66.8317 12.88 68.3117 13.06C70.6317 13.34 72.4917 13.78 72.4917 16.04C72.4917 17.94 70.6717 19.12 68.4117 19.12ZM77.4141 19.1C76.6941 19.1 76.1541 18.6 76.1541 17.86C76.1541 17.12 76.6941 16.62 77.4141 16.62C78.1341 16.62 78.6741 17.12 78.6741 17.86C78.6741 18.6 78.1341 19.1 77.4141 19.1ZM87.3564 4.38C88.0964 4.38 88.6764 4.94 88.6764 5.68C88.6764 6.44 88.0964 7 87.3564 7C86.6164 7 86.0364 6.44 86.0364 5.68C86.0364 4.94 86.6164 4.38 87.3564 4.38ZM81.3364 10.3V8.8H88.1764V20.34C88.1764 22.14 87.4164 23 85.5164 23H81.3364V21.5H85.4164C86.2364 21.5 86.5364 21.16 86.5364 20.38V10.3H81.3364ZM98.0188 19.12C95.3788 19.12 93.5588 17.88 93.5188 15.64H95.1988C95.2588 16.84 96.3188 17.72 98.0188 17.72C99.4588 17.72 100.479 17.1 100.479 16.16C100.479 14.88 99.3588 14.78 97.8388 14.6C95.5588 14.32 93.7388 13.86 93.7388 11.74C93.7388 9.88 95.4388 8.68 97.7388 8.68C100.059 8.68 101.739 9.78 101.899 11.9H100.219C100.099 10.86 99.1388 10.08 97.7388 10.08C96.3188 10.08 95.3588 10.68 95.3588 11.62C95.3588 12.74 96.4388 12.88 97.9188 13.06C100.239 13.34 102.099 13.78 102.099 16.04C102.099 17.94 100.279 19.12 98.0188 19.12Z" fill="white"/>
<path d="M117.602 19H115.862V5H120.742C123.542 5 125.382 6.68 125.382 9.3C125.382 11.92 123.542 13.62 120.742 13.62H117.602V19ZM117.602 6.6V12.02H120.582C122.422 12.02 123.602 10.96 123.602 9.3C123.602 7.64 122.442 6.6 120.602 6.6H117.602ZM133.165 17.5H136.765V19H127.925V17.5H131.525V6.5H127.925V5H133.165V17.5ZM148.747 17.5H149.267V19H148.367C147.007 19 146.547 18.42 146.527 17.42C145.887 18.34 144.867 19.12 143.107 19.12C140.867 19.12 139.347 18 139.347 16.14C139.347 14.1 140.767 12.96 143.447 12.96H146.447V12.26C146.447 10.94 145.507 10.14 143.907 10.14C142.467 10.14 141.507 10.82 141.307 11.86H139.667C139.907 9.86 141.527 8.68 143.987 8.68C146.587 8.68 148.087 9.98 148.087 12.36V16.82C148.087 17.36 148.287 17.5 148.747 17.5ZM146.447 14.84V14.34H143.287C141.827 14.34 141.007 14.88 141.007 16.04C141.007 17.04 141.867 17.72 143.227 17.72C145.267 17.72 146.447 16.54 146.447 14.84ZM153.889 23H151.529V21.5H153.329C154.269 21.5 154.429 21.26 154.809 20.3L155.309 19.06L151.189 8.8H152.929L156.269 16.94L159.509 8.8H161.249L156.349 20.72C155.689 22.34 155.329 23 153.889 23ZM171.052 10.56L171.272 8.8H172.692V18.5C172.692 21.44 171.132 23.12 167.632 23.12C165.032 23.12 163.212 21.9 162.952 19.66H164.632C164.912 20.94 166.052 21.66 167.752 21.66C169.892 21.66 171.052 20.66 171.052 18.44V17.24C170.372 18.4 169.272 19.12 167.552 19.12C164.732 19.12 162.652 17.22 162.652 13.9C162.652 10.78 164.732 8.68 167.552 8.68C169.272 8.68 170.412 9.42 171.052 10.56ZM167.712 17.66C169.712 17.66 171.072 16.12 171.072 13.94C171.072 11.7 169.712 10.14 167.712 10.14C165.692 10.14 164.332 11.68 164.332 13.9C164.332 16.12 165.692 17.66 167.712 17.66ZM184.574 10.4H182.694C180.234 10.4 179.494 12.24 179.494 13.86V17.5H184.014V19H175.334V17.5H177.854V10.3H175.334V8.8H179.454V10.56C179.914 9.78 180.874 8.8 182.874 8.8H184.574V10.4ZM191.416 19.12C188.436 19.12 186.356 17 186.356 13.9C186.356 10.8 188.436 8.68 191.416 8.68C194.396 8.68 196.476 10.8 196.476 13.9C196.476 17 194.396 19.12 191.416 19.12ZM191.416 17.66C193.436 17.66 194.796 16.08 194.796 13.9C194.796 11.72 193.436 10.14 191.416 10.14C189.396 10.14 188.036 11.72 188.036 13.9C188.036 16.08 189.396 17.66 191.416 17.66ZM205.699 14.18V8.8H207.339V19H205.919L205.699 17.64C205.099 18.4 204.119 19.12 202.539 19.12C200.399 19.12 198.619 17.9 198.619 14.6V8.8H200.259V14.5C200.259 16.54 201.219 17.62 202.819 17.62C204.579 17.62 205.699 16.24 205.699 14.18ZM215.901 8.68C218.061 8.68 219.861 9.9 219.861 13.2V19H218.221V13.3C218.221 11.26 217.261 10.18 215.621 10.18C213.841 10.18 212.701 11.56 212.701 13.58V19H211.061V8.8H212.481L212.701 10.18C213.301 9.4 214.301 8.68 215.901 8.68ZM231.063 10.36V5H232.703V19H231.283L231.063 17.36C230.383 18.3 229.283 19.12 227.563 19.12C224.743 19.12 222.663 17.22 222.663 13.9C222.663 10.78 224.743 8.68 227.563 8.68C229.283 8.68 230.443 9.38 231.063 10.36ZM227.723 17.66C229.723 17.66 231.083 16.12 231.083 13.94C231.083 11.7 229.723 10.14 227.723 10.14C225.703 10.14 224.343 11.68 224.343 13.9C224.343 16.12 225.703 17.66 227.723 17.66Z" fill="#FF9ECF"/>
<path d="M117.602 19V19.5H118.102V19H117.602ZM115.862 19H115.362V19.5H115.862V19ZM115.862 5V4.5H115.362V5H115.862ZM117.602 13.62V13.12H117.102V13.62H117.602ZM117.602 6.6V6.1H117.102V6.6H117.602ZM117.602 12.02H117.102V12.52H117.602V12.02ZM117.602 18.5H115.862V19.5H117.602V18.5ZM116.362 19V5H115.362V19H116.362ZM115.862 5.5H120.742V4.5H115.862V5.5ZM120.742 5.5C122.043 5.5 123.073 5.88916 123.773 6.53494C124.469 7.1769 124.882 8.11266 124.882 9.3H125.882C125.882 7.86734 125.376 6.6531 124.451 5.80005C123.531 4.95084 122.241 4.5 120.742 4.5V5.5ZM124.882 9.3C124.882 10.4876 124.469 11.429 123.772 12.0762C123.072 12.7268 122.042 13.12 120.742 13.12V14.12C122.243 14.12 123.533 13.6632 124.453 12.8088C125.376 11.951 125.882 10.7324 125.882 9.3H124.882ZM120.742 13.12H117.602V14.12H120.742V13.12ZM117.102 13.62V19H118.102V13.62H117.102ZM117.102 6.6V12.02H118.102V6.6H117.102ZM117.602 12.52H120.582V11.52H117.602V12.52ZM120.582 12.52C121.596 12.52 122.48 12.2271 123.117 11.6541C123.759 11.0762 124.102 10.255 124.102 9.3H123.102C123.102 10.005 122.856 10.5438 122.448 10.9109C122.034 11.2829 121.408 11.52 120.582 11.52V12.52ZM124.102 9.3C124.102 8.34728 123.766 7.53007 123.127 6.95567C122.494 6.38667 121.614 6.1 120.602 6.1V7.1C121.431 7.1 122.051 7.33333 122.458 7.69932C122.859 8.05992 123.102 8.59272 123.102 9.3H124.102ZM120.602 6.1H117.602V7.1H120.602V6.1ZM133.165 17.5H132.665V18H133.165V17.5ZM136.765 17.5H137.265V17H136.765V17.5ZM136.765 19V19.5H137.265V19H136.765ZM127.925 19H127.425V19.5H127.925V19ZM127.925 17.5V17H127.425V17.5H127.925ZM131.525 17.5V18H132.025V17.5H131.525ZM131.525 6.5H132.025V6H131.525V6.5ZM127.925 6.5H127.425V7H127.925V6.5ZM127.925 5V4.5H127.425V5H127.925ZM133.165 5H133.665V4.5H133.165V5ZM133.165 18H136.765V17H133.165V18ZM136.265 17.5V19H137.265V17.5H136.265ZM136.765 18.5H127.925V19.5H136.765V18.5ZM128.425 19V17.5H127.425V19H128.425ZM127.925 18H131.525V17H127.925V18ZM132.025 17.5V6.5H131.025V17.5H132.025ZM131.525 6H127.925V7H131.525V6ZM128.425 6.5V5H127.425V6.5H128.425ZM127.925 5.5H133.165V4.5H127.925V5.5ZM132.665 5V17.5H133.665V5H132.665ZM149.267 17.5H149.767V17H149.267V17.5ZM149.267 19V19.5H149.767V19H149.267ZM146.527 17.42L147.027 17.41L146.996 15.8701L146.117 17.1345L146.527 17.42ZM146.447 12.96V13.46H146.947V12.96H146.447ZM141.307 11.86V12.36H141.72L141.798 11.9544L141.307 11.86ZM139.667 11.86L139.171 11.8004L139.103 12.36H139.667V11.86ZM146.447 14.34H146.947V13.84H146.447V14.34ZM148.747 18H149.267V17H148.747V18ZM148.767 17.5V19H149.767V17.5H148.767ZM149.267 18.5H148.367V19.5H149.267V18.5ZM148.367 18.5C147.745 18.5 147.441 18.3654 147.287 18.2205C147.138 18.0811 147.036 17.8444 147.027 17.41L146.027 17.43C146.038 17.9956 146.176 18.5489 146.602 18.9495C147.023 19.3446 147.629 19.5 148.367 19.5V18.5ZM146.117 17.1345C145.558 17.9378 144.683 18.62 143.107 18.62V19.62C145.051 19.62 146.216 18.7422 146.937 17.7055L146.117 17.1345ZM143.107 18.62C142.064 18.62 141.243 18.3588 140.694 17.9326C140.158 17.5168 139.847 16.9188 139.847 16.14H138.847C138.847 17.2212 139.296 18.1132 140.08 18.7224C140.852 19.3212 141.91 19.62 143.107 19.62V18.62ZM139.847 16.14C139.847 15.2468 140.151 14.6085 140.7 14.1788C141.269 13.7337 142.167 13.46 143.447 13.46V12.46C142.047 12.46 140.895 12.7563 140.084 13.3912C139.253 14.0415 138.847 14.9932 138.847 16.14H139.847ZM143.447 13.46H146.447V12.46H143.447V13.46ZM146.947 12.96V12.26H145.947V12.96H146.947ZM146.947 12.26C146.947 11.4725 146.661 10.7943 146.098 10.322C145.547 9.85915 144.785 9.64 143.907 9.64V10.64C144.63 10.64 145.137 10.8209 145.456 11.088C145.763 11.3457 145.947 11.7275 145.947 12.26H146.947ZM143.907 9.64C142.316 9.64 141.076 10.4126 140.816 11.7656L141.798 11.9544C141.938 11.2274 142.618 10.64 143.907 10.64V9.64ZM141.307 11.36H139.667V12.36H141.307V11.36ZM140.163 11.9196C140.268 11.0502 140.665 10.3824 141.29 9.92307C141.925 9.45697 142.833 9.18 143.987 9.18V8.18C142.681 8.18 141.549 8.49303 140.699 9.11693C139.839 9.74764 139.306 10.6698 139.171 11.8004L140.163 11.9196ZM143.987 9.18C145.21 9.18 146.1 9.48581 146.68 10.0011C147.25 10.5084 147.587 11.279 147.587 12.36H148.587C148.587 11.061 148.174 9.99159 147.344 9.25387C146.524 8.52419 145.364 8.18 143.987 8.18V9.18ZM147.587 12.36V16.82H148.587V12.36H147.587ZM147.587 16.82C147.587 17.1266 147.639 17.4756 147.899 17.7244C148.156 17.9686 148.495 18 148.747 18V17C148.653 17 148.601 16.9924 148.575 16.9856C148.553 16.98 148.568 16.9798 148.59 17.0006C148.612 17.022 148.612 17.0368 148.606 17.0143C148.597 16.9867 148.587 16.928 148.587 16.82H147.587ZM146.947 14.84V14.34H145.947V14.84H146.947ZM146.447 13.84H143.287V14.84H146.447V13.84ZM143.287 13.84C142.51 13.84 141.817 13.9813 141.307 14.3497C140.768 14.739 140.507 15.3275 140.507 16.04H141.507C141.507 15.5925 141.656 15.331 141.892 15.1603C142.158 14.9687 142.605 14.84 143.287 14.84V13.84ZM140.507 16.04C140.507 16.6985 140.797 17.2641 141.303 17.6519C141.798 18.0309 142.469 18.22 143.227 18.22V17.22C142.625 17.22 142.186 17.0691 141.911 16.8581C141.647 16.6559 141.507 16.3815 141.507 16.04H140.507ZM143.227 18.22C144.342 18.22 145.279 17.8962 145.941 17.285C146.607 16.6704 146.947 15.8102 146.947 14.84H145.947C145.947 15.5698 145.697 16.1496 145.263 16.55C144.825 16.9538 144.152 17.22 143.227 17.22V18.22ZM151.529 23H151.029V23.5H151.529V23ZM151.529 21.5V21H151.029V21.5H151.529ZM154.809 20.3L154.346 20.113L154.344 20.116L154.809 20.3ZM155.309 19.06L155.773 19.247L155.848 19.0604L155.773 18.8737L155.309 19.06ZM151.189 8.8V8.3H150.45L150.725 8.98632L151.189 8.8ZM152.929 8.8L153.392 8.6102L153.265 8.3H152.929V8.8ZM156.269 16.94L155.807 17.1298L156.276 18.2743L156.734 17.1249L156.269 16.94ZM159.509 8.8V8.3H159.17L159.045 8.61509L159.509 8.8ZM161.249 8.8L161.712 8.9901L161.996 8.3H161.249V8.8ZM156.349 20.72L155.887 20.5299L155.886 20.5314L156.349 20.72ZM153.889 22.5H151.529V23.5H153.889V22.5ZM152.029 23V21.5H151.029V23H152.029ZM151.529 22H153.329V21H151.529V22ZM153.329 22C153.822 22 154.259 21.9432 154.609 21.6357C154.922 21.361 155.096 20.9347 155.274 20.484L154.344 20.116C154.143 20.6253 154.047 20.799 153.949 20.8843C153.89 20.9368 153.777 21 153.329 21V22ZM155.273 20.487L155.773 19.247L154.846 18.873L154.346 20.113L155.273 20.487ZM155.773 18.8737L151.653 8.61368L150.725 8.98632L154.845 19.2463L155.773 18.8737ZM151.189 9.3H152.929V8.3H151.189V9.3ZM152.467 8.9898L155.807 17.1298L156.732 16.7502L153.392 8.6102L152.467 8.9898ZM156.734 17.1249L159.974 8.98491L159.045 8.61509L155.805 16.7551L156.734 17.1249ZM159.509 9.3H161.249V8.3H159.509V9.3ZM160.787 8.6099L155.887 20.5299L156.812 20.9101L161.712 8.9901L160.787 8.6099ZM155.886 20.5314C155.548 21.3625 155.325 21.8357 155.051 22.1214C154.822 22.36 154.522 22.5 153.889 22.5V23.5C154.696 23.5 155.297 23.31 155.773 22.8136C156.204 22.3643 156.491 21.6975 156.812 20.9086L155.886 20.5314ZM171.052 10.56L170.616 10.8048L171.359 12.1295L171.548 10.622L171.052 10.56ZM171.272 8.8V8.3H170.83L170.776 8.73798L171.272 8.8ZM172.692 8.8H173.192V8.3H172.692V8.8ZM162.952 19.66V19.16H162.39L162.455 19.7176L162.952 19.66ZM164.632 19.66L165.12 19.5532L165.034 19.16H164.632V19.66ZM171.052 17.24H171.552V15.3984L170.62 16.9871L171.052 17.24ZM171.548 10.622L171.768 8.86202L170.776 8.73798L170.556 10.498L171.548 10.622ZM171.272 9.3H172.692V8.3H171.272V9.3ZM172.192 8.8V18.5H173.192V8.8H172.192ZM172.192 18.5C172.192 19.8852 171.826 20.8879 171.13 21.5503C170.429 22.217 169.31 22.62 167.632 22.62V23.62C169.454 23.62 170.864 23.183 171.819 22.2747C172.778 21.3621 173.192 20.0548 173.192 18.5H172.192ZM167.632 22.62C166.405 22.62 165.411 22.3318 164.706 21.8242C164.012 21.3246 163.563 20.5884 163.448 19.6024L162.455 19.7176C162.601 20.9716 163.191 21.9654 164.122 22.6358C165.042 23.2982 166.258 23.62 167.632 23.62V22.62ZM162.952 20.16H164.632V19.16H162.952V20.16ZM164.143 19.7668C164.312 20.5371 164.746 21.1501 165.39 21.5614C166.024 21.9665 166.836 22.16 167.752 22.16V21.16C166.968 21.16 166.359 20.9935 165.928 20.7186C165.507 20.4499 165.232 20.0629 165.12 19.5532L164.143 19.7668ZM167.752 22.16C168.891 22.16 169.862 21.8945 170.548 21.2457C171.239 20.5919 171.552 19.6328 171.552 18.44H170.552C170.552 19.4672 170.285 20.1181 169.861 20.5193C169.431 20.9255 168.753 21.16 167.752 21.16V22.16ZM171.552 18.44V17.24H170.552V18.44H171.552ZM170.62 16.9871C170.032 17.9902 169.099 18.62 167.552 18.62V19.62C169.445 19.62 170.711 18.8098 171.483 17.4929L170.62 16.9871ZM167.552 18.62C166.256 18.62 165.167 18.1856 164.401 17.405C163.636 16.6246 163.152 15.4537 163.152 13.9H162.152C162.152 15.6663 162.707 17.1054 163.687 18.105C164.667 19.1044 166.027 19.62 167.552 19.62V18.62ZM163.152 13.9C163.152 12.453 163.632 11.2764 164.406 10.465C165.179 9.65472 166.27 9.18 167.552 9.18V8.18C166.013 8.18 164.655 8.75528 163.682 9.77495C162.711 10.7936 162.152 12.227 162.152 13.9H163.152ZM167.552 9.18C169.103 9.18 170.07 9.83277 170.616 10.8048L171.488 10.3152C170.753 9.00723 169.44 8.18 167.552 8.18V9.18ZM167.712 18.16C168.848 18.16 169.825 17.719 170.514 16.9514C171.199 16.1883 171.572 15.1332 171.572 13.94H170.572C170.572 14.9268 170.265 15.7317 169.77 16.2836C169.278 16.831 168.576 17.16 167.712 17.16V18.16ZM171.572 13.94C171.572 12.7202 171.201 11.646 170.517 10.8696C169.829 10.0879 168.85 9.64 167.712 9.64V10.64C168.573 10.64 169.275 10.9721 169.766 11.5304C170.263 12.094 170.572 12.9198 170.572 13.94H171.572ZM167.712 9.64C166.567 9.64 165.584 10.0801 164.892 10.8542C164.204 11.6235 163.832 12.689 163.832 13.9H164.832C164.832 12.891 165.14 12.0765 165.637 11.5208C166.13 10.9699 166.836 10.64 167.712 10.64V9.64ZM163.832 13.9C163.832 15.111 164.204 16.1765 164.892 16.9458C165.584 17.7199 166.567 18.16 167.712 18.16V17.16C166.836 17.16 166.13 16.8301 165.637 16.2792C165.14 15.7235 164.832 14.909 164.832 13.9H163.832ZM184.574 10.4V10.9H185.074V10.4H184.574ZM179.494 17.5H178.994V18H179.494V17.5ZM184.014 17.5H184.514V17H184.014V17.5ZM184.014 19V19.5H184.514V19H184.014ZM175.334 19H174.834V19.5H175.334V19ZM175.334 17.5V17H174.834V17.5H175.334ZM177.854 17.5V18H178.354V17.5H177.854ZM177.854 10.3H178.354V9.8H177.854V10.3ZM175.334 10.3H174.834V10.8H175.334V10.3ZM175.334 8.8V8.3H174.834V8.8H175.334ZM179.454 8.8H179.954V8.3H179.454V8.8ZM179.454 10.56H178.954V12.3921L179.885 10.814L179.454 10.56ZM184.574 8.8H185.074V8.3H184.574V8.8ZM184.574 9.9H182.694V10.9H184.574V9.9ZM182.694 9.9C181.322 9.9 180.366 10.4223 179.77 11.2242C179.192 12.0021 178.994 12.9856 178.994 13.86H179.994C179.994 13.1144 180.166 12.3679 180.573 11.8208C180.962 11.2977 181.606 10.9 182.694 10.9V9.9ZM178.994 13.86V17.5H179.994V13.86H178.994ZM179.494 18H184.014V17H179.494V18ZM183.514 17.5V19H184.514V17.5H183.514ZM184.014 18.5H175.334V19.5H184.014V18.5ZM175.834 19V17.5H174.834V19H175.834ZM175.334 18H177.854V17H175.334V18ZM178.354 17.5V10.3H177.354V17.5H178.354ZM177.854 9.8H175.334V10.8H177.854V9.8ZM175.834 10.3V8.8H174.834V10.3H175.834ZM175.334 9.3H179.454V8.3H175.334V9.3ZM178.954 8.8V10.56H179.954V8.8H178.954ZM179.885 10.814C180.271 10.159 181.081 9.3 182.874 9.3V8.3C180.667 8.3 179.557 9.40096 179.023 10.306L179.885 10.814ZM182.874 9.3H184.574V8.3H182.874V9.3ZM184.074 8.8V10.4H185.074V8.8H184.074ZM191.416 18.62C190.049 18.62 188.917 18.136 188.127 17.3239C187.336 16.5108 186.856 15.3361 186.856 13.9H185.856C185.856 15.5639 186.416 16.9992 187.411 18.0211C188.405 19.044 189.804 19.62 191.416 19.62V18.62ZM186.856 13.9C186.856 12.4639 187.336 11.2892 188.127 10.4761C188.917 9.664 190.049 9.18 191.416 9.18V8.18C189.804 8.18 188.405 8.756 187.411 9.77886C186.416 10.8008 185.856 12.2361 185.856 13.9H186.856ZM191.416 9.18C192.784 9.18 193.915 9.664 194.706 10.4761C195.496 11.2892 195.976 12.4639 195.976 13.9H196.976C196.976 12.2361 196.416 10.8008 195.422 9.77886C194.427 8.756 193.029 8.18 191.416 8.18V9.18ZM195.976 13.9C195.976 15.3361 195.496 16.5108 194.706 17.3239C193.915 18.136 192.784 18.62 191.416 18.62V19.62C193.029 19.62 194.427 19.044 195.422 18.0211C196.416 16.9992 196.976 15.5639 196.976 13.9H195.976ZM191.416 18.16C192.565 18.16 193.548 17.7069 194.238 16.9294C194.924 16.1568 195.296 15.0928 195.296 13.9H194.296C194.296 14.8872 193.989 15.7032 193.49 16.2656C192.995 16.8231 192.288 17.16 191.416 17.16V18.16ZM195.296 13.9C195.296 12.7072 194.924 11.6432 194.238 10.8706C193.548 10.0931 192.565 9.64 191.416 9.64V10.64C192.288 10.64 192.995 10.9769 193.49 11.5344C193.989 12.0968 194.296 12.9128 194.296 13.9H195.296ZM191.416 9.64C190.268 9.64 189.285 10.0931 188.595 10.8706C187.909 11.6432 187.536 12.7072 187.536 13.9H188.536C188.536 12.9128 188.844 12.0968 189.343 11.5344C189.838 10.9769 190.545 10.64 191.416 10.64V9.64ZM187.536 13.9C187.536 15.0928 187.909 16.1568 188.595 16.9294C189.285 17.7069 190.268 18.16 191.416 18.16V17.16C190.545 17.16 189.838 16.8231 189.343 16.2656C188.844 15.7032 188.536 14.8872 188.536 13.9H187.536ZM205.699 8.8V8.3H205.199V8.8H205.699ZM207.339 8.8H207.839V8.3H207.339V8.8ZM207.339 19V19.5H207.839V19H207.339ZM205.919 19L205.425 19.0798L205.493 19.5H205.919V19ZM205.699 17.64L206.192 17.5602L206.011 16.4378L205.306 17.3302L205.699 17.64ZM198.619 8.8V8.3H198.119V8.8H198.619ZM200.259 8.8H200.759V8.3H200.259V8.8ZM206.199 14.18V8.8H205.199V14.18H206.199ZM205.699 9.3H207.339V8.3H205.699V9.3ZM206.839 8.8V19H207.839V8.8H206.839ZM207.339 18.5H205.919V19.5H207.339V18.5ZM206.412 18.9202L206.192 17.5602L205.205 17.7198L205.425 19.0798L206.412 18.9202ZM205.306 17.3302C204.783 17.9925 203.939 18.62 202.539 18.62V19.62C204.298 19.62 205.414 18.8075 206.091 17.9498L205.306 17.3302ZM202.539 18.62C201.561 18.62 200.724 18.3425 200.131 17.7452C199.539 17.1487 199.119 16.1624 199.119 14.6H198.119C198.119 16.3376 198.589 17.6113 199.421 18.4498C200.253 19.2875 201.377 19.62 202.539 19.62V18.62ZM199.119 14.6V8.8H198.119V14.6H199.119ZM198.619 9.3H200.259V8.3H198.619V9.3ZM199.759 8.8V14.5H200.759V8.8H199.759ZM199.759 14.5C199.759 15.5908 200.015 16.5009 200.556 17.1462C201.107 17.8044 201.899 18.12 202.819 18.12V17.12C202.139 17.12 201.65 16.8956 201.322 16.5038C200.983 16.0991 200.759 15.4492 200.759 14.5H199.759ZM202.819 18.12C203.841 18.12 204.704 17.714 205.304 16.9918C205.895 16.2789 206.199 15.2966 206.199 14.18H205.199C205.199 15.1234 204.942 15.8611 204.534 16.3532C204.133 16.836 203.557 17.12 202.819 17.12V18.12ZM219.861 19V19.5H220.361V19H219.861ZM218.221 19H217.721V19.5H218.221V19ZM212.701 19V19.5H213.201V19H212.701ZM211.061 19H210.561V19.5H211.061V19ZM211.061 8.8V8.3H210.561V8.8H211.061ZM212.481 8.8L212.975 8.72128L212.908 8.3H212.481V8.8ZM212.701 10.18L212.207 10.2587L212.39 11.4045L213.097 10.4849L212.701 10.18ZM215.901 9.18C216.89 9.18 217.738 9.45829 218.338 10.0567C218.937 10.6534 219.361 11.6391 219.361 13.2H220.361C220.361 11.4609 219.885 10.1866 219.044 9.34833C218.204 8.51171 217.072 8.18 215.901 8.18V9.18ZM219.361 13.2V19H220.361V13.2H219.361ZM219.861 18.5H218.221V19.5H219.861V18.5ZM218.721 19V13.3H217.721V19H218.721ZM218.721 13.3C218.721 12.2093 218.465 11.2978 217.918 10.6517C217.359 9.99302 216.557 9.68 215.621 9.68V10.68C216.325 10.68 216.823 10.907 217.155 11.2983C217.497 11.7022 217.721 12.3507 217.721 13.3H218.721ZM215.621 9.68C214.592 9.68 213.72 10.0839 213.113 10.7988C212.512 11.5058 212.201 12.4791 212.201 13.58H213.201C213.201 12.6609 213.46 11.9342 213.875 11.4462C214.282 10.9661 214.87 10.68 215.621 10.68V9.68ZM212.201 13.58V19H213.201V13.58H212.201ZM212.701 18.5H211.061V19.5H212.701V18.5ZM211.561 19V8.8H210.561V19H211.561ZM211.061 9.3H212.481V8.3H211.061V9.3ZM211.987 8.87872L212.207 10.2587L213.195 10.1013L212.975 8.72128L211.987 8.87872ZM213.097 10.4849C213.616 9.81051 214.477 9.18 215.901 9.18V8.18C214.125 8.18 212.986 8.98949 212.305 9.87514L213.097 10.4849ZM231.063 10.36L230.641 10.6273L231.563 12.0855V10.36H231.063ZM231.063 5V4.5H230.563V5H231.063ZM232.703 5H233.203V4.5H232.703V5ZM232.703 19V19.5H233.203V19H232.703ZM231.283 19L230.788 19.0665L230.846 19.5H231.283V19ZM231.063 17.36L231.559 17.2935L231.392 16.0521L230.658 17.0669L231.063 17.36ZM231.563 10.36V5H230.563V10.36H231.563ZM231.063 5.5H232.703V4.5H231.063V5.5ZM232.203 5V19H233.203V5H232.203ZM232.703 18.5H231.283V19.5H232.703V18.5ZM231.779 18.9335L231.559 17.2935L230.568 17.4265L230.788 19.0665L231.779 18.9335ZM230.658 17.0669C230.055 17.9014 229.095 18.62 227.563 18.62V19.62C229.472 19.62 230.712 18.6986 231.469 17.6531L230.658 17.0669ZM227.563 18.62C226.268 18.62 225.178 18.1856 224.413 17.405C223.648 16.6246 223.163 15.4537 223.163 13.9H222.163C222.163 15.6663 222.719 17.1054 223.699 18.105C224.679 19.1044 226.039 19.62 227.563 19.62V18.62ZM223.163 13.9C223.163 12.453 223.644 11.2764 224.418 10.465C225.19 9.65472 226.282 9.18 227.563 9.18V8.18C226.025 8.18 224.666 8.75528 223.694 9.77495C222.723 10.7936 222.163 12.227 222.163 13.9H223.163ZM227.563 9.18C229.136 9.18 230.125 9.81166 230.641 10.6273L231.486 10.0927C230.762 8.94834 229.43 8.18 227.563 8.18V9.18ZM227.723 18.16C228.859 18.16 229.837 17.719 230.526 16.9514C231.21 16.1883 231.583 15.1332 231.583 13.94H230.583C230.583 14.9268 230.276 15.7317 229.781 16.2836C229.29 16.831 228.587 17.16 227.723 17.16V18.16ZM231.583 13.94C231.583 12.7202 231.212 11.646 230.529 10.8696C229.84 10.0879 228.862 9.64 227.723 9.64V10.64C228.585 10.64 229.286 10.9721 229.778 11.5304C230.274 12.094 230.583 12.9198 230.583 13.94H231.583ZM227.723 9.64C226.579 9.64 225.595 10.0801 224.903 10.8542C224.215 11.6235 223.843 12.689 223.843 13.9H224.843C224.843 12.891 225.152 12.0765 225.649 11.5208C226.141 10.9699 226.848 10.64 227.723 10.64V9.64ZM223.843 13.9C223.843 15.111 224.215 16.1765 224.903 16.9458C225.595 17.7199 226.579 18.16 227.723 18.16V17.16C226.848 17.16 226.141 16.8301 225.649 16.2792C225.152 15.7235 224.843 14.909 224.843 13.9H223.843Z" fill="#FF9ECF"/>
</svg>
